<?xml version="1.0" encoding="utf-8"?>
<!-- Generator: Adobe Illustrator 22.1.0, SVG Export Plug-In . SVG Version: 6.00 Build 0)  -->
<svg version="1.1" id="Layer_1" xmlns="http://www.w3.org/2000/svg" xmlns:xlink="http://www.w3.org/1999/xlink" x="0px" y="0px"
	 viewBox="0 0 120 120" style="enable-background:new 0 0 120 120;" xml:space="preserve">
<style type="text/css">
	.st0{fill:#FFFFFF;}
</style>
<path class="st0" d="M107.4,114H12.6C5.6,114,0,108.5,0,101.7V38c0-6.8,5.6-12.3,12.6-12.3h94.8c6.9,0,12.6,5.5,12.6,12.3v63.7
	C120,108.5,114.4,114,107.4,114z M13.3,101h93.3V38.7H13.3V101z"/>
<path class="st0" d="M90.4,38.7H31V19.2c0-6.8,5.6-12.3,12.6-12.3h34.2c6.9,0,12.6,5.5,12.6,12.3V38.7z M44.4,25.7H77v-5.8H44.4
	V25.7z"/>
</svg>
